<?xml version="1.0" encoding="UTF-8" standalone="no"?>
<!-- Created with Inkscape (http://www.inkscape.org/) -->

<svg
   width="500"
   height="500"
   viewBox="0 0 132.29166 132.29167"
   version="1.1"
   id="svg1"
   inkscape:version="1.3.2 (091e20e, 2023-11-25, custom)"
   sodipodi:docname="StarType5.svg"
   inkscape:export-filename="StarType5.png"
   inkscape:export-xdpi="96"
   inkscape:export-ydpi="96"
   xmlns:inkscape="http://www.inkscape.org/namespaces/inkscape"
   xmlns:sodipodi="http://sodipodi.sourceforge.net/DTD/sodipodi-0.dtd"
   xmlns="http://www.w3.org/2000/svg"
   xmlns:svg="http://www.w3.org/2000/svg">
  <sodipodi:namedview
     id="namedview1"
     pagecolor="#ffffff"
     bordercolor="#000000"
     borderopacity="0.25"
     inkscape:showpageshadow="2"
     inkscape:pageopacity="0.0"
     inkscape:pagecheckerboard="0"
     inkscape:deskcolor="#d1d1d1"
     inkscape:document-units="mm"
     inkscape:zoom="0.80175783"
     inkscape:cx="351.72715"
     inkscape:cy="217.64677"
     inkscape:window-width="1920"
     inkscape:window-height="1017"
     inkscape:window-x="-8"
     inkscape:window-y="-8"
     inkscape:window-maximized="1"
     inkscape:current-layer="layer1" />
  <defs
     id="defs1" />
  <g
     inkscape:label="Слой 1"
     inkscape:groupmode="layer"
     id="layer1">
    <circle
       style="fill:#000000;stroke:#2900e2;stroke-width:5;stroke-dasharray:none"
       id="path2"
       cx="65.010796"
       cy="64.680794"
       r="50" />
    <path
       style="display:none;fill:#f9f2ac;fill-opacity:1;stroke:#2900e2;stroke-width:5;stroke-dasharray:none;stroke-opacity:1"
       d="M 43.209092,56.072381 16.26283,22.305596 53.790662,51.645636 51.041449,12.55334 65.559996,49.065831 76.395938,4.9500609 80.025983,49.335608 115.50142,33.165408 85.306048,58.410718 127.87658,66.660819 89.099082,68.947394 127.15307,114.90088 83.922545,78.204093 75.756537,126.72156 70.727237,78.394559 41.24884,125.61144 55.990293,75.584668 3.7950466,90.421111 50.165473,65.199254 4.9100246,62.925238 Z"
       id="path1"
       sodipodi:nodetypes="ccccccccccccccccccccc" />
    <path
       style="fill:#f9f2ac;fill-opacity:1;stroke:#2900e2;stroke-width:3;stroke-dasharray:none;stroke-opacity:1"
       d="M 49.149165,56.072381 3.7226765,3.1653611 54.780675,49.005602 51.041448,22.453462 64.239981,45.765789 70.57901,20.299171 71.96798,45.983179 113.6864,2.9700367 80.685991,50.655624 105.2713,48.345594 85.306049,61.05075 108.40634,66.660819 86.129046,69.277398 127.15307,114.90088 79.962496,80.184118 85.326655,103.95127 69.737225,84.004628 63.110135,106.53398 59.123077,82.862771 5.6084029,128.25148 49.060207,75.584668 22.275274,80.190985 46.205425,66.189266 20.750219,60.945214 Z"
       id="path3"
       sodipodi:nodetypes="ccccccccccccccccccccccccc" />
    <circle
       style="display:none;fill:none;stroke:#a5a5a5;stroke-width:3;stroke-dasharray:none;stroke-opacity:1"
       id="path4"
       cx="66.330811"
       cy="64.845802"
       r="20" />
  </g>
</svg>
